<?xml version="1.0" standalone="no"?>
<!DOCTYPE svg PUBLIC "-//W3C//DTD SVG 20010904//EN"
 "http://www.w3.org/TR/2001/REC-SVG-20010904/DTD/svg10.dtd">
<svg version="1.0" xmlns="http://www.w3.org/2000/svg"
 width="700.000000pt" height="700.000000pt" viewBox="0 0 700.000000 700.000000"
 preserveAspectRatio="xMidYMid meet">
<metadata>
Created by potrace 1.14, written by Peter Selinger 2001-2017
</metadata>
<g transform="translate(0.000000,700.000000) scale(0.100000,-0.100000)"
fill="#000000" stroke="none">
<path d="M2177 6494 c-1 -1 -58 -4 -127 -8 -69 -3 -136 -8 -150 -10 -14 -3
-45 -7 -70 -11 -25 -3 -57 -8 -71 -10 -190 -28 -518 -135 -676 -222 -116 -63
-140 -77 -208 -123 -275 -186 -482 -432 -599 -714 -51 -122 -76 -207 -92 -310
-3 -22 -7 -43 -9 -46 -7 -12 -17 -183 -17 -282 3 -423 149 -760 441 -1015 169
-149 425 -299 672 -396 168 -67 261 -95 669 -202 582 -153 702 -191 893 -275
148 -66 232 -118 315 -195 133 -124 194 -261 193 -435 -1 -302 -163 -541 -468
-694 -71 -36 -223 -90 -278 -100 -16 -3 -41 -7 -55 -10 -108 -22 -417 -36
-500 -22 -14 2 -47 7 -75 10 -172 22 -312 63 -450 133 -91 46 -141 81 -215
149 -148 137 -232 298 -266 509 l-16 100 -500 -1 c-415 0 -501 -3 -508 -14 -5
-8 -7 -17 -5 -20 2 -3 6 -38 9 -77 18 -225 63 -413 144 -603 125 -295 318
-526 598 -716 174 -119 461 -242 674 -289 148 -34 306 -61 400 -70 30 -2 87
-8 125 -11 81 -8 2334 -11 2336 -4 1 3 2 1147 3 2542 1 1395 4 2540 8 2544 4
3 610 7 1348 7 1227 0 1340 1 1341 16 4 71 3 854 -1 864 -4 9 -535 12 -2408
12 -1322 0 -2404 -1 -2405 -1z m303 -907 c8 -2 33 -7 55 -12 157 -30 304 -89
419 -167 167 -114 274 -266 327 -463 20 -77 21 -102 23 -663 0 -320 0 -582 0
-582 -1 0 -44 16 -95 35 -326 123 -388 142 -964 286 -613 155 -904 326 -1004
594 -27 73 -31 95 -35 197 -8 195 56 363 190 500 141 144 376 250 609 275 28
3 52 7 55 10 5 5 398 -4 420 -10z"/>
</g>
</svg>
