<svg width="125" height="125" viewBox="0 0 125 125" fill="none" xmlns="http://www.w3.org/2000/svg">
<g clip-path="url(#clip0_1_48)">
<path d="M88.3789 0H36.6211C16.3958 0 0 16.3958 0 36.6211V88.3789C0 108.604 16.3958 125 36.6211 125H88.3789C108.604 125 125 108.604 125 88.3789V36.6211C125 16.3958 108.604 0 88.3789 0Z" fill="#398CCB"/>
<path fill-rule="evenodd" clip-rule="evenodd" d="M62.3648 18.3105L79.7176 28.3223V33.8271L100.721 45.9565V66.7051L106.355 69.9575V89.9922L89.0137 100.004L81.3147 95.5513L62.5958 106.359L43.9888 95.6138L36.3978 100.004L19.0562 89.9751V69.9575L24.4705 66.8318V45.9565L45.0232 34.0913L45.0347 34.0908V28.3223L62.3648 18.3105ZM79.7176 39.033V48.3455L62.376 58.3572L45.0347 48.3455V39.291L45.0232 39.2915L28.9776 48.5596V64.2295L36.3978 59.9458L53.7391 69.9575V89.9751L48.4927 93.009L62.5958 101.153L76.8111 92.9473L71.6722 89.9751V69.9575L89.0137 59.9458L96.2139 64.1028V48.5596L79.7176 39.033ZM76.1795 87.3948V75.1746L86.7601 81.282V93.5022L76.1795 87.3948ZM101.848 75.1577L91.2674 81.2651V93.5022L101.848 87.3779V75.1577ZM23.5634 87.3779V75.1577L34.1441 81.2651V93.4851L23.5634 87.3779ZM49.232 75.1577L38.6512 81.2651V93.4851L49.232 87.3779V75.1577ZM78.4332 71.2703L89.0137 65.1631L99.5943 71.2703L89.0137 77.3833L78.4332 71.2703ZM36.3978 65.146L25.8169 71.2703L36.3978 77.3662L46.9783 71.2703L36.3978 65.146ZM49.5418 45.7427V33.5225L60.1111 39.6353V51.8499L49.5418 45.7427ZM75.199 33.5225L64.6297 39.6353V51.8442L75.199 45.7427V33.5225ZM51.7955 29.6235L62.3648 23.5164L72.9456 29.6235L62.3648 35.731L51.7955 29.6235Z" fill="white"/>
</g>
<defs>
<clipPath id="clip0_1_48">
<rect width="125" height="125" fill="white"/>
</clipPath>
</defs>
</svg>
