<svg width="62" height="34" viewBox="0 0 62 34" fill="none" xmlns="http://www.w3.org/2000/svg"><path d="M14.3596 16.1704C15.0809 14.9117 14.6389 13.3177 13.3724 12.6102C12.1058 11.9028 10.4943 12.3496 9.77301 13.6083L1.30562 28.3838C0.584285 29.6426 1.02627 31.2365 2.29282 31.944C3.55937 32.6515 5.17087 32.2046 5.8922 30.9459L14.3596 16.1704Z" fill="#C5F74F"/><path d="M32.6106 4.84116C33.3319 3.58244 32.8899 1.98851 31.6234 1.28102C30.3568 0.573534 28.7453 1.02039 28.024 2.27911L19.5566 17.0546C18.8353 18.3133 19.2772 19.9073 20.5438 20.6147C21.8103 21.3222 23.4218 20.8754 24.1432 19.6167L32.6106 4.84116Z" fill="#C5F74F"/><path d="M60.6936 4.84165C61.4149 3.58293 60.9729 1.989 59.7064 1.28151C58.4398 0.574022 56.8283 1.02088 56.107 2.2796L47.6396 17.0551C46.9183 18.3138 47.3603 19.9077 48.6268 20.6152C49.8934 21.3227 51.5049 20.8759 52.2262 19.6171L60.6936 4.84165Z" fill="#C5F74F"/><path d="M42.4367 16.1704C43.158 14.9117 42.716 13.3177 41.4495 12.6102C40.1829 11.9028 38.5714 12.3496 37.8501 13.6083L29.3827 28.3838C28.6614 29.6426 29.1034 31.2365 30.3699 31.944C31.6365 32.6515 33.248 32.2046 33.9693 30.9459L42.4367 16.1704Z" fill="#C5F74F"/></svg>