<svg xmlns="http://www.w3.org/2000/svg" fill="none" viewBox="0 0 210 232"><g clip-path="url(#a)"><path fill="url(#b)" fill-rule="evenodd" d="M208.687 31.859 30.0947 167.73C8.16388 127.966.567559 79.9975 0 51.2275V33.6181c0-2.5614 2.7788-4.0553 4.16851-4.4825C33.5617 20.2778 93.2465 2.30524 96.8378 1.28069 100.429.256138 103.464 0 104.534 0h.097c1.069 0 4.104.256138 7.696 1.28069 3.591 1.02455 63.276 18.99711 92.669 27.85491 1.034.3177 2.836 1.2257 3.691 2.7234Z" clip-rule="evenodd"/><path fill="url(#c)" fill-rule="evenodd" d="M30.0938 167.952 208.686 32.0815c.295.5168.478 1.1027.478 1.7591V51.45c-.962 48.773-22.126 152.722-99.083 178.336-1.068.427-3.591 1.281-5.13 1.281h-.739c-1.539 0-4.062-.854-5.1307-1.281-31.5621-10.505-53.7399-34.186-68.9875-61.834Z" clip-rule="evenodd"/><path fill="url(#d)" fill-opacity=".21" d="M111.74 1.28325C108.147.25665 105.11 0 104.04 0l-.321 231.305h.642c1.54 0 4.064-.855 5.133-1.283 76.995-25.665 98.169-129.822 99.131-178.6921V33.6853c0-2.5665-2.78-4.0637-4.171-4.4914-29.407-8.8758-89.121-26.88405-92.714-27.91065Z"/><path fill="#E3E2FA" d="M104.905 161.689c26.4 0 47.801-21.257 47.801-47.48 0-26.2226-21.401-47.4802-47.801-47.4802-26.3998 0-47.801 21.2576-47.801 47.4802 0 26.223 21.4012 47.48 47.801 47.48Z"/><path fill="url(#e)" fill-rule="evenodd" d="M96.2435 124.475c-3.6358.321-12.8324-1.283-17.3238-5.133-4.8226-4.134-7.3787-9.624-7.3787-17.645 0-9.9501 8.9829-20.5316 21.4945-20.2109 11.8835.3046 19.8985 7.0033 21.4945 17.6446.833 5.5533-.016 8.2223-.676 10.2953-.102.323-.2.631-.286.933-.321 1.07-.77 3.401 0 4.171.769.77 12.511 12.084 18.286 17.644.534.642 1.604 2.246 1.604 3.529v6.096c0 .962-.257 1.283-1.283 1.283h-12.833c-.748-.107-2.246-.834-2.246-2.887 0-2.189-.233-2.511-.7-3.156-.08-.111-.168-.232-.262-.373-.642-.963-1.925-.963-3.208-.963-1.283 0-2.246-.321-2.887-.962-.642-.642-.642-1.604-.321-2.887.321-1.284 0-2.567-.642-2.888-.102-.051-.22-.118-.353-.194-.704-.4-1.827-1.038-3.176-.768-1.604.321-3.85 0-5.133-1.283-1.283-1.284-2.8873-2.32-4.1705-2.246Zm-8.6621-24.381c2.6577 0 4.8122-2.1547 4.8122-4.8124s-2.1545-4.8122-4.8122-4.8122c-2.6577 0-4.8122 2.1545-4.8122 4.8122 0 2.6577 2.1545 4.8124 4.8122 4.8124Z" clip-rule="evenodd"/></g><defs><linearGradient id="b" x1="19.5695" x2="97.5269" y1="96.5644" y2="15.0782" gradientUnits="userSpaceOnUse"><stop stop-color="#45FFC8"/><stop offset="1" stop-color="#1DBBF1"/></linearGradient><linearGradient id="c" x1="73.7856" x2="170.671" y1="143.724" y2="190.884" gradientUnits="userSpaceOnUse"><stop stop-color="#D14AE8"/><stop offset=".552228" stop-color="#B628E3"/><stop offset="1" stop-color="#8315FD"/></linearGradient><linearGradient id="d" x1="155.914" x2="155.914" y1="21.8152" y2="182.542" gradientUnits="userSpaceOnUse"><stop stop-color="#20ABF5"/><stop offset=".398093" stop-color="#2A8CC3"/><stop offset="1" stop-color="#A104DC"/></linearGradient><linearGradient id="e" x1="90.1481" x2="129.287" y1="99.4517" y2="138.912" gradientUnits="userSpaceOnUse"><stop stop-color="#FE5B01"/><stop offset="1" stop-color="#FFB200"/></linearGradient><clipPath id="a"><path fill="#fff" d="M0 0h210v232H0z"/></clipPath></defs></svg>