<svg xmlns="http://www.w3.org/2000/svg" xmlns:xlink="http://www.w3.org/1999/xlink" fill="none" viewBox="0 0 1080 1080"><path fill="url(#a)" d="M112.409 228.981h867.625v669.651H112.409z"/><path fill="#274D82" d="M741.553 662.106H334.612v64.281h406.941v-64.281Z"/><path fill="#274D82" d="M694.082 715.376H378.843v64.281h315.239v-64.281ZM771.847 645.423H603.163v18.093h168.684v-18.093ZM874.152 242.659 271.598 590.545l60.584 104.935 602.554-347.886-60.584-104.935ZM511.293 207.593 125.136 430.542l12.445 21.555 386.157-222.949-12.445-21.555Z"/><path fill="#274D82" d="M498.733 192.967 112.576 415.916l12.445 21.555 386.157-222.949-12.445-21.555Z"/><path fill="#274D82" d="M486.283 181.536 100.126 404.485l12.445 21.555 386.157-222.949-12.445-21.555ZM545.958 207.588 137.585 443.362l9.802 16.976L555.76 224.564l-9.802-16.976Z"/><path fill="#274D82" d="m571.437 212.167-424.05 244.825 9.801 16.976 424.05-244.825-9.801-16.976Z"/><path fill="#274D82" d="M607.997 207.594 154.545 469.395l12.445 21.555 453.452-261.801-12.445-21.555ZM853.648 235.221l-136.251 78.665 40.279 69.764 136.25-78.664-40.278-69.765Z"/><path fill="url(#b)" d="M30 160h1045v842H30z"/><path fill="#3068B7" fill-rule="evenodd" d="M842.637 179.14H258.378L44.9148 391.505 529.55 975.103l38.662-43.38 479.718-538.225L842.637 179.14Zm-21.344 50 158.572 165.579L530.892 898.45 112.578 394.719 279.011 229.14h542.282Z" clip-rule="evenodd"/><defs><pattern id="a" width="1" height="1" patternContentUnits="objectBoundingBox"><use xlink:href="#c" transform="scale(.00115 .0015)"/></pattern><pattern id="b" width="1" height="1" patternContentUnits="objectBoundingBox"><use xlink:href="#d" transform="scale(.00096 .00119)"/></pattern></defs></svg>