<svg width="64" height="64" viewBox="0 0 64 64" fill="none" xmlns="http://www.w3.org/2000/svg">
    <path d="M30.2036 20.1467C29.9661 17.9084 28.9652 16.1656 27.201 14.9184C25.4538 13.6711 23.1807 13.0475 20.3817 13.0475C18.4139 13.0475 16.726 13.3465 15.3181 13.9445C13.9101 14.5425 12.8329 15.3541 12.0865 16.3792C11.3401 17.4044 10.9584 18.5748 10.9415 19.8904C10.9415 20.9839 11.1874 21.9321 11.6794 22.7352C12.1883 23.5382 12.8753 24.2216 13.7405 24.7855C14.6056 25.3322 15.564 25.7935 16.6158 26.1694C17.6675 26.5453 18.7277 26.8614 19.7964 27.1177L24.6819 28.3479C26.6497 28.8092 30.2036 30.2188 30.2036 30.2188H39.2875V43.392V59C32.9347 59 26.5819 59 20.229 59C16.1747 59 12.6548 58.3678 9.66921 57.1035C6.70059 55.8391 4.37659 53.9938 2.6972 51.5676C1.03478 49.1414 0.135708 46.1856 0 42.7001H9.28753C9.42324 44.5282 9.98304 46.0489 10.9669 47.262C11.9508 48.4751 13.2316 49.3806 14.8092 49.9786C16.4037 50.5767 18.1849 50.8757 20.1527 50.8757C22.2053 50.8757 24.0034 50.5681 25.5471 49.953C27.1077 49.3208 28.3291 48.4495 29.2112 47.3389C30.0933 46.2112 30.5428 44.8956 30.5598 43.392C30.5428 42.0252 30.1442 40.8975 29.3639 40.009C28.5835 39.1035 27.4894 38.3517 26.0814 37.7537C24.6904 37.1386 23.0619 36.5918 21.1959 36.1134L15.2672 34.5757C10.9754 33.4651 7.5827 31.7822 5.08906 29.5268C2.61238 27.2544 1.37405 24.2387 1.37405 20.4798C1.37405 17.3873 2.20526 14.6792 3.86768 12.3555C5.54707 10.0318 7.82867 8.22924 10.7125 6.94779C13.5963 5.64926 16.8618 5 20.5089 5C24.207 5 29.4286 5 29.4286 5H64V13.0475H39.2875V30.2188H30.2036V20.1467Z" fill="#4285F4"/>
</svg>
