<svg width="77" height="128" viewBox="0 0 77 128" fill="none" xmlns="http://www.w3.org/2000/svg">
<path d="M0 96.6251V0H63.9764V16.8433H19.7213V96.6251H0Z" fill="#2563EB"/>
<path d="M55.5312 57.7958C55.1537 53.9899 53.5339 51.0333 50.6716 48.9259C47.8093 46.8185 43.9248 45.7648 39.0181 45.7648C35.684 45.7648 32.8689 46.2366 30.5728 47.1802C28.2767 48.0924 26.5153 49.3663 25.2886 51.0018C24.0934 52.6374 23.4958 54.4932 23.4958 56.5691C23.4329 58.2991 23.7946 59.8088 24.5809 61.0984C25.3987 62.388 26.5153 63.5046 27.9307 64.4482C29.3461 65.3604 30.9817 66.1624 32.8375 66.8544C34.6932 67.5149 36.6748 68.0811 38.7822 68.5529L47.4633 70.6288C51.6781 71.5724 55.5469 72.8306 59.0697 74.4032C62.5925 75.9759 65.6434 77.9103 68.2226 80.2064C70.8018 82.5025 72.7991 85.2075 74.2145 88.3214C75.6614 91.4353 76.4005 95.0053 76.432 99.0313C76.4005 104.945 74.8908 110.072 71.9027 114.412C68.9461 118.721 64.6684 122.071 59.0697 124.461C53.5024 126.82 46.7871 128 38.9237 128C31.1232 128 24.3293 126.805 18.5418 124.414C12.7858 122.024 8.288 118.485 5.04829 113.799C1.84003 109.081 0 103.278 0 96.2949H19.7213C19.9415 99.5346 20.9166 102.24 22.5522 104.41C24.2192 106.549 26.4367 108.169 29.2046 109.269C32.0039 110.339 35.165 110.874 38.6878 110.874C42.1477 110.874 45.1515 110.37 47.6992 109.364C50.2784 108.357 52.2757 106.958 53.6911 105.165C55.1065 103.372 55.8142 101.312 55.8142 98.9841C55.8142 96.8139 55.1694 94.9896 53.8798 93.5112C52.6217 92.0329 50.7659 90.7748 48.3126 89.7368C45.8907 88.6989 42.9183 87.7552 39.3955 86.906L28.8743 84.2639C20.7279 82.2823 14.2956 79.1842 9.57759 74.9694C4.85957 70.7546 2.51628 65.0773 2.54773 57.9373C2.51628 52.087 4.07323 46.9758 7.21858 42.6038C10.3954 38.2317 14.7517 34.819 20.2875 32.3656C25.8233 29.9123 32.114 28.6856 39.1596 28.6856C46.331 28.6856 52.5903 29.9123 57.9373 32.3656C63.3159 34.819 67.4992 38.2317 70.4873 42.6038C73.4754 46.9758 75.0166 52.0398 75.1109 57.7958H55.5312Z" fill="#2563EB"/>
</svg>
