<?xml version="1.0" standalone="no"?>
<!DOCTYPE svg PUBLIC "-//W3C//DTD SVG 20010904//EN"
 "http://www.w3.org/TR/2001/REC-SVG-20010904/DTD/svg10.dtd">
<svg version="1.0" xmlns="http://www.w3.org/2000/svg"
 width="1024.000000pt" height="1024.000000pt" viewBox="0 0 1024.000000 1024.000000"
 preserveAspectRatio="xMidYMid meet">
<metadata>
Created by potrace 1.14, written by Peter Selinger 2001-2017
</metadata>
<g transform="translate(0.000000,1024.000000) scale(0.100000,-0.100000)"
fill="#000000" stroke="none">
<path d="M2043 6258 c2 -2191 6 -3996 9 -4013 4 -16 9 -57 13 -90 4 -33 9 -69
11 -80 3 -11 7 -36 10 -55 3 -19 9 -51 14 -70 5 -19 11 -47 14 -62 2 -15 7
-31 10 -36 3 -5 7 -21 10 -36 15 -80 130 -386 149 -394 4 -2 7 -12 7 -23 0
-10 4 -19 8 -19 4 0 12 -13 18 -28 14 -38 141 -241 170 -273 13 -14 24 -28 24
-32 0 -27 247 -282 362 -374 40 -32 75 -61 78 -64 32 -38 478 -293 536 -306 5
-1 41 -15 79 -31 169 -70 453 -153 620 -182 28 -5 61 -12 75 -15 14 -3 39 -7
55 -10 17 -2 64 -9 105 -15 101 -15 144 -20 199 -25 25 -2 46 -4 46 -5 0 -14
733 -19 895 -6 58 5 123 10 145 11 21 2 53 6 70 9 16 3 56 8 88 11 32 4 68 8
80 11 12 2 47 8 77 14 30 5 64 11 75 13 11 3 38 8 60 12 22 5 42 9 45 10 3 1
32 7 65 15 33 7 65 15 70 16 64 15 293 90 350 114 97 40 283 126 295 135 8 6
44 26 79 44 35 18 69 37 75 42 6 5 34 24 61 41 160 101 402 314 492 436 15 20
38 48 51 62 12 14 22 30 22 37 0 7 4 13 10 13 5 0 17 15 26 33 9 17 20 34 23
37 20 16 167 292 178 335 2 5 21 63 43 127 22 64 42 130 45 145 3 15 7 33 9
38 1 6 7 33 11 60 10 57 12 64 15 68 1 1 3 16 5 32 2 17 6 46 9 65 22 133 23
549 2 611 -3 8 -7 32 -10 54 -5 48 -32 177 -47 225 -5 19 -12 46 -15 59 -3 13
-12 40 -20 60 -9 20 -17 44 -19 54 -4 19 -120 256 -153 314 -78 134 -264 355
-390 460 -11 10 -31 27 -44 38 -19 16 -95 74 -209 158 -8 7 -26 19 -40 27 -13
8 -60 36 -104 62 -112 68 -316 167 -445 218 -30 12 -68 27 -85 35 -34 15 -65
27 -80 31 -5 1 -71 23 -145 47 -116 39 -197 64 -235 73 -5 1 -64 16 -130 33
-66 16 -131 32 -145 35 -14 3 -63 15 -110 26 -47 11 -94 23 -105 25 -69 16
-182 44 -245 60 -14 3 -34 8 -45 10 -11 1 -69 15 -130 30 -60 15 -118 28 -129
31 -10 2 -44 11 -75 20 -31 9 -60 17 -66 18 -21 5 -96 27 -152 45 -332 108
-585 261 -711 430 -15 20 -29 38 -32 41 -14 13 -60 114 -74 162 -13 46 -28
139 -28 173 3 206 41 342 133 475 143 209 421 359 764 415 115 19 460 27 570
14 138 -17 195 -25 227 -35 10 -3 30 -7 44 -10 15 -3 35 -9 46 -15 10 -5 18
-7 18 -4 0 17 259 -99 317 -141 17 -13 34 -24 37 -24 17 0 216 -191 216 -207
0 -5 8 -18 18 -29 72 -77 166 -335 171 -469 1 -20 8 -20 784 -20 l782 0 -2 80
c-1 84 -8 154 -27 294 -7 51 -65 291 -74 306 -4 6 -7 17 -9 25 -4 29 -72 188
-122 289 -48 94 -182 304 -220 343 -9 9 -27 31 -41 49 -44 59 -222 234 -310
304 -166 134 -460 308 -640 379 -25 10 -56 23 -70 29 -14 5 -29 11 -35 13 -5
1 -57 19 -115 39 -58 21 -112 38 -120 40 -8 2 -35 8 -60 15 -25 7 -54 14 -65
17 -66 16 -103 24 -130 29 -16 2 -51 9 -76 15 -25 6 -61 12 -80 14 -19 2 -47
6 -64 8 -29 5 -81 12 -167 22 -287 32 -774 21 -1072 -24 -34 -6 -78 -12 -98
-15 -21 -3 -57 -11 -80 -16 -24 -6 -54 -13 -68 -15 -14 -2 -36 -7 -50 -10 -14
-3 -34 -8 -45 -10 -11 -3 -51 -14 -90 -25 -38 -11 -80 -23 -92 -25 -24 -6
-153 -50 -188 -65 -11 -4 -47 -18 -80 -31 -33 -12 -77 -31 -97 -41 -28 -13
-38 -15 -39 -6 -1 17 -1 1195 0 1228 l1 25 1769 -1 1768 -2 1 674 0 674 -2559
0 -2559 0 3 -3982z m1622 -2538 c9 -6 58 -25 210 -81 51 -19 268 -88 295 -94
8 -2 60 -15 115 -29 55 -15 111 -29 125 -32 14 -3 77 -19 140 -35 63 -17 126
-32 140 -35 14 -3 33 -7 42 -10 9 -3 25 -7 35 -9 10 -2 63 -15 118 -30 55 -14
111 -28 123 -31 13 -3 49 -12 80 -20 32 -8 68 -17 82 -20 14 -3 34 -8 45 -11
11 -4 25 -8 30 -9 121 -26 403 -112 545 -166 331 -126 542 -280 638 -466 23
-44 42 -89 42 -99 0 -10 4 -23 9 -28 20 -21 31 -211 18 -305 -12 -86 -50 -216
-66 -230 -3 -3 -15 -23 -26 -45 -11 -22 -30 -53 -42 -70 -13 -16 -27 -35 -31
-40 -13 -18 -82 -95 -82 -92 0 2 -17 -12 -38 -33 -50 -46 -158 -117 -247 -160
-38 -19 -72 -35 -75 -35 -3 -1 -18 -7 -35 -14 -38 -16 -210 -68 -250 -76 -16
-3 -46 -8 -65 -11 -19 -3 -41 -7 -48 -9 -79 -27 -578 -26 -713 0 -13 3 -53 10
-88 16 -36 5 -67 12 -71 14 -3 2 -20 7 -36 10 -16 3 -33 7 -39 9 -70 19 -103
29 -117 37 -10 5 -22 9 -28 9 -5 0 -45 16 -87 36 -199 92 -356 215 -471 369
-29 39 -57 75 -62 82 -6 7 -10 14 -10 17 0 3 -18 42 -39 86 -22 44 -38 80 -36
80 2 0 -3 17 -11 37 -9 20 -17 44 -19 52 -2 9 -10 48 -19 87 -8 39 -18 97 -22
130 -4 44 -9 1157 -5 1256 1 17 19 16 46 -2z"/>
</g>
</svg>
