<svg width="128" height="128" viewBox="0 0 128 128" fill="none" xmlns="http://www.w3.org/2000/svg">
<path d="M60.4071 39.8543C59.9321 35.2949 57.9305 31.7448 54.402 29.2041C50.9076 26.6633 46.3613 25.393 40.7634 25.393C36.8278 25.393 33.4521 26.0021 30.6361 27.2202C27.8202 28.4384 25.6658 30.0916 24.173 32.1799C22.6802 34.2682 21.9169 36.6523 21.883 39.3322C21.883 41.5597 22.3749 43.4914 23.3588 45.1272C24.3766 46.763 25.7506 48.1552 27.4809 49.3038C29.2112 50.4175 31.1281 51.3572 33.2316 52.1229C35.335 52.8886 37.4555 53.5325 39.5929 54.0546L49.3639 56.5605C53.2994 57.5002 60.4071 60.3716 60.4071 60.3716H78.5751V87.206V119C65.8694 119 53.1637 119 40.458 119C32.3495 119 25.3096 117.712 19.3384 115.137C13.4012 112.561 8.75318 108.802 5.3944 103.86C2.06955 98.9177 0.271417 92.8965 0 85.7964H18.5751C18.8465 89.5205 19.9661 92.6181 21.9338 95.0892C23.9016 97.5603 26.4631 99.405 29.6183 100.623C32.8075 101.841 36.3698 102.45 40.3053 102.45C44.4105 102.45 48.0068 101.824 51.0942 100.571C54.2154 99.2832 56.6582 97.5082 58.4224 95.2459C60.1866 92.9487 61.0857 90.2688 61.1196 87.206C61.0857 84.4216 60.2884 82.1245 58.7277 80.3147C57.1671 78.47 54.9788 76.9386 52.1629 75.7205C49.3808 74.4675 46.1238 73.3537 42.3919 72.3792L30.5344 69.2468C21.9508 66.9845 15.1654 63.5562 10.1781 58.962C5.22477 54.333 2.74809 48.19 2.74809 40.533C2.74809 34.2334 4.41052 28.7168 7.73537 23.9834C11.0941 19.25 15.6573 15.5781 21.4249 12.9677C27.1925 10.3226 33.7235 9 41.0178 9C48.4139 9 58.8571 9 58.8571 9H128V25.393H78.5751V60.3716H60.4071V39.8543Z" fill="#4285F4"/>
</svg>
