<svg width="512" height="512" viewBox="0 0 512 512" fill="none" xmlns="http://www.w3.org/2000/svg">
<path d="M241.657 159.856C239.76 141.702 231.769 127.566 217.683 117.449C203.732 107.332 185.583 102.274 163.235 102.274C147.524 102.274 134.047 104.699 122.805 109.55C111.563 114.4 102.963 120.983 97.0033 129.298C91.0438 137.613 87.9963 147.106 87.8609 157.777C87.8609 166.647 89.8248 174.338 93.7526 180.852C97.8159 187.365 103.301 192.909 110.209 197.482C117.117 201.917 124.769 205.659 133.167 208.708C141.564 211.757 150.029 214.32 158.562 216.399L197.57 226.377C213.281 230.119 241.657 241.552 241.657 241.552H314.186V348.402V475C263.463 475 212.739 475 162.016 475C129.645 475 101.541 469.872 77.7026 459.617C54.0001 449.362 35.4443 434.394 22.0355 414.715C8.76203 395.036 1.58355 371.061 0.5 342.789H74.6551C75.7387 357.618 80.2083 369.952 88.064 379.792C95.9197 389.631 106.146 396.976 118.742 401.827C131.474 406.677 145.695 409.103 161.406 409.103C177.795 409.103 192.152 406.608 204.477 401.619C216.938 396.491 226.69 389.423 233.733 380.415C240.776 371.269 244.365 360.598 244.501 348.402C244.365 337.315 241.183 328.169 234.952 320.962C228.722 313.617 219.986 307.519 208.744 302.669C197.638 297.68 184.635 293.245 169.736 289.365L122.399 276.892C88.1317 267.884 61.0431 254.233 41.133 235.94C21.3582 217.508 11.4709 193.048 11.4709 162.559C11.4709 137.475 18.1076 115.509 31.381 96.6611C44.7899 77.8135 63.007 63.1927 86.0324 52.7988C109.058 42.2663 135.131 37 164.251 37C193.777 37 235.469 37 235.469 37H511.5V102.274H314.186V241.552H241.657V159.856Z" fill="#4285F4"/>
</svg>
