<svg width="128" height="128" viewBox="0 0 128 128" fill="none" xmlns="http://www.w3.org/2000/svg"><path d="M121 33.05V93.95C121 97.4111 119.614 100.73 117.147 103.178C114.68 105.625 111.335 107 107.846 107H20.1538C16.6652 107 13.3195 105.625 10.8527 103.178C8.38585 100.73 7 97.4111 7 93.95V33.05M121 33.05C121 29.5889 119.614 26.2696 117.147 23.8223C114.68 21.3749 111.335 20 107.846 20H20.1538C16.6652 20 13.3195 21.3749 10.8527 23.8223C8.38585 26.2696 7 29.5889 7 33.05M121 33.05V34.4594C121 36.6874 120.426 38.8785 119.331 40.8237C118.236 42.769 116.657 44.4037 114.745 45.5722L70.8985 72.3392C68.8243 73.6067 66.4361 74.2778 64 74.2778C61.5639 74.2778 59.1757 73.6067 57.1015 72.3392L13.2554 45.578C11.3432 44.4095 9.76447 42.7748 8.66948 40.8295C7.57449 38.8843 6.99975 36.6932 7 34.4652V33.05" stroke="black" stroke-width="10" stroke-linecap="round" stroke-linejoin="round"/></svg>
