<svg width="128" height="128" viewBox="0 0 128 128" fill="none" xmlns="http://www.w3.org/2000/svg">
<path fill-rule="evenodd" clip-rule="evenodd" d="M106.389 101.529L48.9463 118.529C47.1914 119.049 45.5095 117.53 45.8783 115.759L66.3994 17.4187C66.7831 15.5807 69.3235 15.2887 70.125 16.9917L108.121 97.7279C108.838 99.2509 108.02 101.047 106.389 101.529ZM116.24 97.5189L72.2457 4.0367V4.0347C71.699 2.88356 70.8513 1.9019 69.7923 1.1938C68.7333 0.485708 67.5025 0.0775784 66.2305 0.0126909C63.5531 -0.14331 61.1546 1.14869 59.8015 3.3477L12.0875 80.6779C11.3627 81.846 10.9856 83.1967 11.0004 84.5716C11.0153 85.9465 11.4215 87.2887 12.1715 88.4409L35.4948 124.593C36.8849 126.751 39.2934 128 41.7968 128C42.5064 128 43.2199 127.9 43.9215 127.692L111.623 107.656C112.642 107.357 113.585 106.843 114.389 106.148C115.192 105.453 115.837 104.594 116.28 103.628C116.717 102.668 116.94 101.624 116.933 100.569C116.926 99.5133 116.69 98.4733 116.24 97.5189Z" fill="#0C344B"/>
</svg>
