<svg width="256" height="256" viewBox="0 0 256 256" fill="none" xmlns="http://www.w3.org/2000/svg">
<path d="M120.814 79.7086C119.864 70.5898 115.861 63.4897 108.804 58.4082C101.815 53.3267 92.7227 50.786 81.5267 50.786C73.6557 50.786 66.9042 52.0041 61.2723 54.4405C55.6404 56.8768 51.3316 60.1832 48.3461 64.3598C45.3605 68.5363 43.8338 73.3046 43.7659 78.6645C43.7659 83.1195 44.7498 86.9828 46.7176 90.2544C48.7532 93.526 51.5013 96.3104 54.9618 98.6075C58.4224 100.835 62.2562 102.714 66.4631 104.246C70.6701 105.777 74.911 107.065 79.1858 108.109L98.7277 113.121C106.599 115 120.814 120.743 120.814 120.743H157.15V174.412V238C131.739 238 106.327 238 80.916 238C64.6989 238 50.6192 235.424 38.6768 230.273C26.8024 225.122 17.5064 217.604 10.7888 207.72C4.1391 197.835 0.542833 185.793 0 171.593H37.1501C37.693 179.041 39.9321 185.236 43.8677 190.178C47.8032 195.121 52.9262 198.81 59.2366 201.246C65.6149 203.683 72.7396 204.901 80.6107 204.901C88.821 204.901 96.0136 203.648 102.188 201.142C108.431 198.566 113.316 195.016 116.845 190.492C120.373 185.897 122.171 180.538 122.239 174.412C122.171 168.843 120.577 164.249 117.455 160.629C114.334 156.94 109.958 153.877 104.326 151.441C98.7617 148.935 92.2477 146.707 84.7837 144.758L61.0687 138.494C43.9016 133.969 30.3308 127.112 20.3562 117.924C10.4495 108.666 5.49618 96.38 5.49618 81.066C5.49618 68.4667 8.82104 57.4336 15.4707 47.9668C22.1883 38.4999 31.3147 31.1562 42.8499 25.9355C54.3851 20.6452 67.447 18 82.0356 18C96.8278 18 117.714 18 117.714 18H256V50.786H157.15V120.743H120.814V79.7086Z" fill="black"/>
</svg>
